<svg clip-rule="evenodd" fill-rule="evenodd" stroke-linejoin="round" stroke-miterlimit="1.4142" version="1.1"
     viewBox="0 0 16 16" width="24px" height="24px" xml:space="preserve" xmlns="http://www.w3.org/2000/svg">
<path style=" stroke:none;fill-rule:evenodd;fill:rgb(97.254902%,49.411765%,7.843138%);fill-opacity:1;"
      d="M 7.917969 6.738281 C 7.902344 6.75 7.800781 6.984375 7.695312 7.265625 C 7.585938 7.546875 7.488281 7.78125 7.480469 7.792969 C 7.464844 7.804688 7.304688 7.8125 6.957031 7.824219 L 6.449219 7.835938 L 6.40625 7.886719 C 6.339844 7.960938 6.34375 8.023438 6.417969 8.097656 C 6.449219 8.125 6.636719 8.28125 6.832031 8.4375 C 7.027344 8.59375 7.195312 8.730469 7.199219 8.746094 C 7.203125 8.757812 7.140625 9.007812 7.058594 9.296875 C 6.964844 9.613281 6.910156 9.835938 6.917969 9.855469 C 6.921875 9.871094 6.9375 9.894531 6.949219 9.910156 C 7 9.96875 7.050781 9.945312 7.347656 9.746094 C 7.933594 9.347656 7.988281 9.3125 8.003906 9.324219 C 8.015625 9.328125 8.15625 9.421875 8.320312 9.53125 C 8.753906 9.820312 8.878906 9.898438 8.910156 9.910156 C 8.953125 9.925781 9.027344 9.878906 9.042969 9.832031 C 9.046875 9.804688 9.007812 9.636719 8.910156 9.289062 C 8.828125 9.011719 8.765625 8.777344 8.765625 8.765625 C 8.765625 8.742188 8.804688 8.707031 9.148438 8.433594 C 9.558594 8.105469 9.59375 8.070312 9.59375 8.003906 C 9.59375 7.976562 9.585938 7.9375 9.578125 7.921875 C 9.542969 7.855469 9.496094 7.847656 8.984375 7.828125 C 8.667969 7.816406 8.484375 7.800781 8.476562 7.789062 C 8.464844 7.78125 8.4375 7.71875 8.414062 7.648438 C 8.359375 7.488281 8.164062 6.953125 8.121094 6.847656 C 8.105469 6.800781 8.074219 6.753906 8.058594 6.742188 C 8.015625 6.714844 7.953125 6.710938 7.917969 6.738281 "/>
    <path style=" stroke:none;fill-rule:evenodd;fill:rgb(17.647059%,22.745098%,24.705882%);fill-opacity:1;"
          d="M 8.542969 2.5625 C 8.355469 2.59375 8.160156 2.6875 7.980469 2.828125 C 7.894531 2.894531 7.640625 3.144531 7.53125 3.273438 C 7.238281 3.613281 6.878906 4.171875 6.5625 4.773438 C 5.964844 5.902344 5.136719 7.921875 4.375 10.117188 L 4.207031 10.601562 L 4.035156 10.660156 C 3.074219 10.992188 2.679688 11.183594 2.410156 11.453125 C 2.261719 11.601562 2.1875 11.742188 2.1875 11.890625 C 2.1875 12.417969 2.777344 12.84375 3.984375 13.179688 C 4.765625 13.398438 5.519531 13.527344 6.453125 13.601562 C 6.867188 13.636719 8.15625 13.652344 8.617188 13.625 C 9.578125 13.574219 10.453125 13.441406 11.171875 13.234375 C 11.933594 13.015625 12.378906 12.800781 12.683594 12.507812 C 12.898438 12.304688 12.976562 12.136719 12.964844 11.921875 C 12.941406 11.515625 12.519531 11.1875 11.550781 10.820312 C 11.492188 10.796875 11.433594 10.769531 11.421875 10.757812 C 11.414062 10.75 11.351562 10.496094 11.28125 10.203125 C 10.988281 8.929688 10.566406 7.164062 10.359375 6.324219 C 10.203125 5.691406 10.203125 5.695312 10.3125 5.589844 C 10.410156 5.5 10.472656 5.484375 11.285156 5.351562 C 12.140625 5.210938 12.425781 5.0625 12.300781 4.824219 C 12.191406 4.609375 11.226562 3.808594 10.507812 3.335938 C 9.597656 2.738281 8.972656 2.492188 8.542969 2.5625 M 7.917969 6.738281 C 7.902344 6.75 7.800781 6.984375 7.695312 7.265625 C 7.585938 7.546875 7.488281 7.78125 7.480469 7.792969 C 7.464844 7.804688 7.304688 7.8125 6.957031 7.824219 L 6.449219 7.835938 L 6.40625 7.886719 C 6.339844 7.960938 6.34375 8.023438 6.417969 8.097656 C 6.449219 8.125 6.636719 8.28125 6.832031 8.4375 C 7.027344 8.59375 7.195312 8.730469 7.199219 8.746094 C 7.203125 8.757812 7.140625 9.007812 7.058594 9.296875 C 6.964844 9.613281 6.910156 9.835938 6.917969 9.855469 C 6.921875 9.871094 6.9375 9.894531 6.949219 9.910156 C 7 9.96875 7.050781 9.945312 7.347656 9.746094 C 7.933594 9.347656 7.988281 9.3125 8.003906 9.324219 C 8.015625 9.328125 8.15625 9.421875 8.320312 9.53125 C 8.753906 9.820312 8.878906 9.898438 8.910156 9.910156 C 8.953125 9.925781 9.027344 9.878906 9.042969 9.832031 C 9.046875 9.804688 9.007812 9.636719 8.910156 9.289062 C 8.828125 9.011719 8.765625 8.777344 8.765625 8.765625 C 8.765625 8.742188 8.804688 8.707031 9.148438 8.433594 C 9.558594 8.105469 9.59375 8.070312 9.59375 8.003906 C 9.59375 7.976562 9.585938 7.9375 9.578125 7.921875 C 9.542969 7.855469 9.496094 7.847656 8.984375 7.828125 C 8.667969 7.816406 8.484375 7.800781 8.476562 7.789062 C 8.464844 7.78125 8.4375 7.71875 8.414062 7.648438 C 8.359375 7.488281 8.164062 6.953125 8.121094 6.847656 C 8.105469 6.800781 8.074219 6.753906 8.058594 6.742188 C 8.015625 6.714844 7.953125 6.710938 7.917969 6.738281 "/>
</svg>
